<svg width="14" height="17" viewBox="0 0 14 17" fill="none" xmlns="http://www.w3.org/2000/svg">
<path d="M4.375 17C3.16458 17 2.13296 16.5749 1.28013 15.7246C0.427292 14.8743 0.000583931 13.8464 5.9727e-07 12.641C-0.000582736 11.4356 0.426125 10.4078 1.28013 9.55749C2.13413 8.7072 3.16575 8.28205 4.375 8.28205V10.0256C3.64583 10.0256 3.02604 10.2799 2.51563 10.7885C2.00521 11.297 1.75 11.9145 1.75 12.641C1.75 13.3675 2.00521 13.985 2.51563 14.4936C3.02604 15.0021 3.64583 15.2564 4.375 15.2564C5.10417 15.2564 5.72396 15.0021 6.23438 14.4936C6.74479 13.985 7 13.3675 7 12.641H8.75C8.75 13.847 8.32329 14.8751 7.46988 15.7254C6.61646 16.5757 5.58483 17.0006 4.375 17ZM12.25 16.1282V11.7692H5.6L4.79063 10.5487L7 5.66667H5.00938L4.48438 7.01795L2.8 6.53846L3.82813 3.92308H9.58125C10.2375 3.92308 10.7371 4.1884 11.0801 4.71903C11.4231 5.24966 11.4631 5.81255 11.2 6.4077L9.75625 9.58975H14V16.1282H12.25ZM11.375 3.48718C10.8938 3.48718 10.4819 3.3166 10.1395 2.97544C9.79708 2.63428 9.62558 2.22366 9.625 1.74359C9.62442 1.26353 9.79592 0.853202 10.1395 0.512621C10.4831 0.17204 10.8949 0.00116828 11.375 5.8905e-06C11.8551 -0.0011565 12.2672 0.169715 12.6114 0.512621C12.9555 0.855527 13.1268 1.26585 13.125 1.74359C13.1233 2.22134 12.952 2.63195 12.6114 2.97544C12.2707 3.31893 11.8586 3.48951 11.375 3.48718Z" fill="white"/>
</svg>
