<svg width="35" height="35" viewBox="0 0 35 35" fill="none" xmlns="http://www.w3.org/2000/svg">
<path d="M17.5 2.91675C15.5849 2.91675 13.6886 3.29396 11.9192 4.02684C10.1499 4.75972 8.54223 5.83392 7.18805 7.18811C4.45314 9.92301 2.91669 13.6323 2.91669 17.5001C2.91669 23.9459 7.1021 29.4147 12.8917 31.3542C13.6209 31.4709 13.8542 31.0188 13.8542 30.6251V28.1605C9.8146 29.0355 8.95419 26.2063 8.95419 26.2063C8.28335 24.5147 7.33544 24.0626 7.33544 24.0626C6.00835 23.1584 7.43752 23.1876 7.43752 23.1876C8.89585 23.2897 9.66877 24.6897 9.66877 24.6897C10.9375 26.9063 13.0813 26.2501 13.9125 25.9001C14.0438 24.9522 14.4229 24.3105 14.8313 23.9459C11.5938 23.5813 8.19585 22.3272 8.19585 16.7709C8.19585 15.1522 8.75002 13.8542 9.69794 12.8188C9.5521 12.4542 9.04169 10.9376 9.84377 8.96883C9.84377 8.96883 11.0688 8.57508 13.8542 10.4563C15.0063 10.1355 16.2604 9.97508 17.5 9.97508C18.7396 9.97508 19.9938 10.1355 21.1459 10.4563C23.9313 8.57508 25.1563 8.96883 25.1563 8.96883C25.9584 10.9376 25.4479 12.4542 25.3021 12.8188C26.25 13.8542 26.8042 15.1522 26.8042 16.7709C26.8042 22.3417 23.3917 23.5667 20.1396 23.9313C20.6646 24.3834 21.1459 25.273 21.1459 26.6292V30.6251C21.1459 31.0188 21.3792 31.4855 22.1229 31.3542C27.9125 29.4001 32.0834 23.9459 32.0834 17.5001C32.0834 15.585 31.7061 13.6886 30.9733 11.9193C30.2404 10.1499 29.1662 8.5423 27.812 7.18811C26.4578 5.83392 24.8502 4.75972 23.0808 4.02684C21.3115 3.29396 19.4151 2.91675 17.5 2.91675Z" fill="white"/>
</svg>
