<svg width="17" height="17" viewBox="0 0 17 17" fill="none" xmlns="http://www.w3.org/2000/svg">
<path d="M15.5245 1.47461C14.5801 0.530411 13.2995 0 11.9641 0C10.6288 0 9.34818 0.530411 8.40376 1.47461L2.88752 6.9251C2.77024 7.04172 2.67724 7.18044 2.61389 7.33323C2.55054 7.48603 2.51811 7.64987 2.51846 7.81528V13.5908L0.184487 15.9245C0.125997 15.983 0.0796008 16.0525 0.0479465 16.1289C0.0162921 16.2053 0 16.2873 0 16.37C0 16.4527 0.0162921 16.5346 0.0479465 16.6111C0.0796008 16.6875 0.125997 16.757 0.184487 16.8155C0.302612 16.9336 0.462824 17 0.629878 17C0.712595 17 0.794502 16.9837 0.870922 16.952C0.947343 16.9204 1.01678 16.874 1.07527 16.8155L3.40925 14.481H9.18359C9.34877 14.4813 9.51237 14.4489 9.66497 14.3857C9.81758 14.3224 9.95618 14.2297 10.0728 14.1127L15.5206 8.60314C15.9892 8.13556 16.3611 7.58016 16.6149 6.96871C16.8688 6.35726 16.9996 5.70176 17 5.03969C17.0004 4.37762 16.8702 3.72197 16.6171 3.11025C16.3639 2.49852 15.9926 1.94271 15.5245 1.47461ZM9.2914 2.36479C9.98682 1.66892 10.9262 1.27185 11.9098 1.25804C12.8934 1.24423 13.8436 1.61476 14.5583 2.29084C15.273 2.96691 15.6958 3.89518 15.7367 4.87822C15.7777 5.86127 15.4337 6.82152 14.7777 7.55476H10.3348L13.0379 4.85195C13.156 4.7338 13.2224 4.57355 13.2224 4.40646C13.2224 4.23937 13.156 4.07913 13.0379 3.96098C12.9198 3.84283 12.7595 3.77645 12.5925 3.77645C12.4254 3.77645 12.2652 3.84283 12.1471 3.96098L7.55469 8.55356V4.0814L9.2914 2.36479ZM3.77752 7.81843L6.29563 5.32576V9.81209L3.77752 12.3307V7.81843ZM9.18359 13.2217H4.6683L9.075 8.81408H13.5399L9.18359 13.2217Z" fill="white"/>
</svg>
