<svg width="16" height="16" viewBox="0 0 16 16" fill="none" xmlns="http://www.w3.org/2000/svg">
<path d="M8 0C6.41775 0 4.87103 0.469192 3.55544 1.34824C2.23985 2.22729 1.21447 3.47672 0.608967 4.93853C0.00346623 6.40034 -0.15496 8.00887 0.153721 9.56072C0.462403 11.1126 1.22433 12.538 2.34315 13.6568C3.46197 14.7757 4.88743 15.5376 6.43928 15.8463C7.99113 16.155 9.59966 15.9965 11.0615 15.391C12.5233 14.7855 13.7727 13.7601 14.6518 12.4446C15.5308 11.129 16 9.58225 16 8C16 7.59111 15.9644 7.18222 15.9111 6.79111C15.4669 7.41386 14.88 7.9212 14.1996 8.2707C13.5192 8.6202 12.7649 8.80169 12 8.8C10.9824 8.80002 9.9911 8.47683 9.16907 7.87703C8.34703 7.27723 7.73675 6.43183 7.42626 5.46276C7.11576 4.49369 7.12109 3.45105 7.44148 2.48521C7.76187 1.51936 8.38076 0.680249 9.20889 0.0888888C8.81778 0.0355555 8.40889 0 8 0Z" fill="white"/>
</svg>
